<svg width="32" height="32" viewBox="0 0 32 32" fill="none" xmlns="http://www.w3.org/2000/svg">
<path d="M11.7895 22.7368V9.26315C11.7895 8.36979 12.1444 7.51302 12.7761 6.88132C13.4078 6.24962 14.2645 5.89473 15.1579 5.89473H30.3158V4.21052C30.3158 2.35789 28.8 0.842102 26.9474 0.842102H3.36842C2.47506 0.842102 1.61829 1.19699 0.986588 1.82869C0.354886 2.46039 0 3.31716 0 4.21052V27.7895C0 28.6828 0.354886 29.5396 0.986588 30.1713C1.61829 30.803 2.47506 31.1579 3.36842 31.1579H26.9474C28.8 31.1579 30.3158 29.6421 30.3158 27.7895V26.1053H15.1579C14.2645 26.1053 13.4078 25.7504 12.7761 25.1187C12.1444 24.487 11.7895 23.6302 11.7895 22.7368ZM16.8421 9.26315C15.9158 9.26315 15.1579 10.021 15.1579 10.9474V21.0526C15.1579 21.9789 15.9158 22.7368 16.8421 22.7368H32V9.26315H16.8421ZM21.8947 18.5263C20.4968 18.5263 19.3684 17.3979 19.3684 16C19.3684 14.6021 20.4968 13.4737 21.8947 13.4737C23.2926 13.4737 24.4211 14.6021 24.4211 16C24.4211 17.3979 23.2926 18.5263 21.8947 18.5263Z" fill="#2237FC"/>
</svg>
